<svg width="172" height="82" viewBox="0 0 172 82" fill="none" xmlns="http://www.w3.org/2000/svg">
<rect width="172" height="82" fill="#FFD600"/>
<path d="M22 15.4092H24.3218V28.7839H24.3846L35.0224 15.4092H38.0039L28.8096 26.7701L38.0039 38.697H35.0858L27.3346 28.595L24.3224 32.3084V38.697H22V15.4092Z" fill="white"/>
<path d="M51.6244 15C58.151 15 63.925 20.1926 63.925 27.0528C63.925 33.9136 58.1196 39.1062 51.6244 39.1062C45.0344 39.1062 39.3546 33.7247 39.3546 27.1793C39.3551 19.8464 45.4424 15 51.6244 15ZM51.6244 36.9974C56.9904 36.9974 61.6032 32.6231 61.6032 27.0843C61.6032 21.6399 57.1159 17.1082 51.6244 17.1082C46.3839 17.1082 41.6769 21.3881 41.6769 27.1787C41.6769 32.4972 46.227 36.9974 51.6244 36.9974Z" fill="white"/>
<path d="M67.4737 15.4092H73.3732C76.4802 15.4092 78.0174 15.7869 79.0844 16.2904C81.6887 17.5173 83.2265 20.0667 83.2265 22.9309C83.2265 26.298 80.8099 29.7287 76.3227 30.0114L82.8813 38.697H79.9632L72.0865 28.1544C75.0359 28.1544 76.0402 28.1229 77.0759 27.8082C79.6174 27.0843 80.9041 24.9446 80.9041 22.8673C80.9041 21.0418 79.8684 19.154 78.3626 18.3986C76.9817 17.6747 75.7892 17.5173 73.844 17.5173H69.7961V38.697H67.4743V15.4092H67.4737Z" fill="white"/>
<path d="M89.0028 15.4092V29.9169C89.0028 31.6159 89.2539 33.1582 89.7874 34.1339C91.1997 36.7456 93.4901 36.9974 94.5885 36.9974C95.6864 36.9974 97.9774 36.7456 99.3896 34.1339C99.9232 33.1582 100.174 31.6159 100.174 29.9169V15.4092H102.497V29.9169C102.497 31.8683 102.183 33.5359 101.618 34.7634C100.018 38.2564 96.754 39.1062 94.5891 39.1062C92.4237 39.1062 89.1604 38.2564 87.5598 34.7634C86.9949 33.5359 86.6811 31.8683 86.6811 29.9169V15.4092H89.0028Z" fill="white"/>
<path d="M107.237 15.4092H110.375L123.335 34.7319H123.398V15.4092H125.72V38.697H123.398L109.622 18.2098H109.559V38.697H107.237V15.4092H107.237Z" fill="white"/>
<path d="M130.429 15.4092H137.207C140.062 15.4092 142.887 16.1016 144.769 17.3285C148.849 19.8773 150.041 24.3151 150.041 27.1157C150.041 29.2875 149.194 33.945 144.769 36.7777C142.886 38.0046 140.062 38.697 137.207 38.697H130.429V15.4092ZM132.752 36.5889H136.109C138.212 36.5889 141.412 36.5889 144.079 34.701C145.492 33.505 147.719 31.0815 147.719 27.0219C147.719 23.9381 146.181 21.0739 143.765 19.312C141.694 17.9586 139.529 17.5179 136.108 17.5179H132.751V36.5889H132.752Z" fill="white"/>
<path d="M58.6815 44.7401H64.6681L66.8235 57.5429L69.9773 44.7401H75.9437L79.1046 57.5263L81.2623 44.7401H87.2187L82.7214 67.6104H76.5412L72.9635 53.2107L69.3999 67.6104H63.2203L58.6815 44.7401Z" fill="#3F3F3F"/>
<path d="M89.2628 44.7401H106.154V49.6227H95.5804V53.2583H105.389V57.9224H95.5804V62.4315H106.46V67.611H89.2634V44.7401H89.2628Z" fill="#3F3F3F"/>
<path d="M108.756 60.0448L114.753 59.6225C114.883 60.7152 115.146 61.5478 115.545 62.1185C116.194 63.0461 117.121 63.5081 118.329 63.5081C119.228 63.5081 119.923 63.2706 120.408 62.7979C120.896 62.324 121.139 61.7753 121.139 61.1523C121.139 60.559 120.906 60.0281 120.443 59.5602C119.98 59.0922 118.903 58.6504 117.215 58.2341C114.451 57.5381 112.48 56.6123 111.302 55.4573C110.115 54.3022 109.521 52.8313 109.521 51.0426C109.521 49.8674 109.825 48.7563 110.433 47.7117C111.04 46.6665 111.954 45.8452 113.174 45.2472C114.394 44.6486 116.066 44.3505 118.19 44.3505C120.796 44.3505 122.783 44.8933 124.152 45.98C125.52 47.0673 126.332 48.7961 126.592 51.1667L120.652 51.5569C120.493 50.5271 120.164 49.7783 119.657 49.3103C119.151 48.8424 118.454 48.609 117.564 48.609C116.83 48.609 116.278 48.783 115.908 49.131C115.536 49.479 115.352 49.9036 115.352 50.403C115.352 50.7659 115.505 51.0937 115.81 51.3852C116.106 51.6875 116.811 51.9666 117.925 52.2273C120.68 52.893 122.653 53.567 123.845 54.2482C125.037 54.9287 125.904 55.7744 126.448 56.7833C126.989 57.7917 127.261 58.9212 127.261 60.1683C127.261 61.6345 126.899 62.9879 126.175 64.2243C125.451 65.4619 124.441 66.4002 123.142 67.0403C121.843 67.6793 120.206 67.9994 118.232 67.9994C114.761 67.9994 112.36 67.2512 111.024 65.7529C109.688 64.2564 108.932 62.3525 108.756 60.0448Z" fill="#3F3F3F"/>
<path d="M129 44.7401H148.159V50.3876H141.73V67.6104H135.428V50.3876H129V44.7401Z" fill="#3F3F3F"/>
</svg>
