<svg id="blockquote" xmlns="http://www.w3.org/2000/svg" width="40.004" height="28.649" viewBox="0 0 40.004 28.649">
  <path id="Контур_9682" data-name="Контур 9682" d="M409.622,384.51q0,3.754,0,7.508c0,.692-.012.7-.716.7q-7.4,0-14.806,0c-.709,0-.712,0-.712-.693,0-4.424-.032-8.85.017-13.273a15.981,15.981,0,0,1,2.236-8.479,12.222,12.222,0,0,1,6.993-5.158,26.12,26.12,0,0,1,5.706-1.028c.555-.048.815.1.926.688.3,1.556.644,3.1,1.014,4.645.125.524-.052.68-.535.748a9.448,9.448,0,0,0-3.5,1.131,5.375,5.375,0,0,0-2.741,4.44c-.04.446.158.539.55.536,1.6-.013,3.208-.007,4.812-.007.736,0,.752.012.752.728Q409.625,380.756,409.622,384.51Z" transform="translate(-370.314 -364.081)" fill="#00A1E0"/>
  <path id="Контур_9683" data-name="Контур 9683" d="M392.3,384.527c0,2.5-.012,5.006.011,7.51.005.527-.15.7-.691.693q-7.429-.028-14.86,0c-.5,0-.712-.105-.708-.667.023-4.459,0-8.919.025-13.38a18.034,18.034,0,0,1,.892-5.508,11.961,11.961,0,0,1,7.857-7.9,24.343,24.343,0,0,1,6.317-1.189c.478-.035.681.128.777.608.317,1.588.659,3.173,1.038,4.748.122.507-.049.655-.5.72a9.548,9.548,0,0,0-3.638,1.2,5.363,5.363,0,0,0-2.635,4.4c-.035.407.136.522.516.518,1.621-.012,3.242-.007,4.865-.007.712,0,.736.023.736.747Q392.3,380.773,392.3,384.527Z" transform="translate(-376.05 -364.08)" fill="#00A1E0"/>
</svg>
