<svg width="1037" height="125" viewBox="0 0 1037 125" fill="none" xmlns="http://www.w3.org/2000/svg">
<g opacity="0.3">
<path opacity="0.3" fill-rule="evenodd" clip-rule="evenodd" d="M6.56364 84.3751V75.6945H22.8V80.5556H51.4727V71.5278H68.4V77.7778H88.4364V84.0278H103.291V73.6112H114V125H0V84.3751H6.56364Z" fill="#02A0E4"/>
<path opacity="0.3" d="M114 102.431H0V125H114V102.431Z" fill="#075678"/>
<path opacity="0.3" d="M114 97.2222H0V102.43H114V97.2222Z" fill="#1F85BE"/>
<path opacity="0.3" d="M114 95.4863H0V97.2224H114V95.4863Z" fill="#74B3CF"/>
<path opacity="0.3" fill-rule="evenodd" clip-rule="evenodd" d="M410.506 77.8961V67.8312H426.6V73.4675H455.021V63H471.8V70.2468H491.661V77.4935H506.385V65.4156H517V125H404V77.8961H410.506Z" fill="#02A0E4"/>
<path opacity="0.3" d="M517 102H404V125H517V102Z" fill="#075678"/>
<path opacity="0.3" d="M517 97H404V102H517V97Z" fill="#1F85BE"/>
<path opacity="0.3" d="M517 95H404V97H517V95Z" fill="#74B3CF"/>
<path opacity="0.3" fill-rule="evenodd" clip-rule="evenodd" d="M123.564 66.5V54H139.8V61H168.473V48H185.4V57H205.436V66H220.291V51H231V125H117V66.5H123.564Z" fill="#02A0E4"/>
<path opacity="0.3" d="M231 102.431H117V125H231V102.431Z" fill="#003260"/>
<path opacity="0.3" d="M231 97.2222H117V102.43H231V97.2222Z" fill="#45BCFF"/>
<path opacity="0.3" d="M231 95.4863H117V97.2224H231V95.4863Z" fill="#74B3CF"/>
<path opacity="0.3" fill-rule="evenodd" clip-rule="evenodd" d="M293.564 45.2273V28.1818H309.8V37.7273H338.473V20H355.4V32.2727H375.436V44.5455H390.291V24.0909H401V125H287V45.2273H293.564Z" fill="#02A0E4"/>
<path opacity="0.3" d="M401 98H287V125H401V98Z" fill="#003260"/>
<path opacity="0.3" d="M401 92H287V98H401V92Z" fill="#45BCFF"/>
<path opacity="0.3" d="M401 108.708H287V109.667H401V108.708Z" fill="#74B3CF"/>
<path opacity="0.3" fill-rule="evenodd" clip-rule="evenodd" d="M236.879 49.7857V33.7143H244V42.7143H256.576V26H264V37.5714H272.788V49.1429H279.303V29.8571H284V125H234V49.7857H236.879Z" fill="#02A0E4"/>
<path opacity="0.3" d="M284 115H234V125H284V115Z" fill="#419FC8"/>
<path opacity="0.3" d="M284 110H234V115H284V110Z" fill="#106DA2"/>
<path opacity="0.3" d="M284 95H234V97H284V95Z" fill="#DDF5FF"/>
<path opacity="0.3" fill-rule="evenodd" clip-rule="evenodd" d="M526.564 84.3751V75.6945H542.8V80.5556H571.473V71.5278H588.4V77.7778H608.436V84.0278H623.291V73.6112H634V125H520V84.3751H526.564Z" fill="#02A0E4"/>
<path opacity="0.3" d="M634 102.431H520V125H634V102.431Z" fill="#075678"/>
<path opacity="0.3" d="M634 97.2222H520V102.43H634V97.2222Z" fill="#1F85BE"/>
<path opacity="0.3" d="M634 95.4863H520V97.2224H634V95.4863Z" fill="#74B3CF"/>
<path opacity="0.3" fill-rule="evenodd" clip-rule="evenodd" d="M930.506 77.8961V67.8312H946.6V73.4675H975.021V63H991.8V70.2468H1011.66V77.4935H1026.38V65.4156H1037V125H924V77.8961H930.506Z" fill="#02A0E4"/>
<path opacity="0.3" d="M1037 102H924V125H1037V102Z" fill="#075678"/>
<path opacity="0.3" d="M1037 97H924V102H1037V97Z" fill="#1F85BE"/>
<path opacity="0.3" d="M1037 95H924V97H1037V95Z" fill="#74B3CF"/>
<path opacity="0.3" fill-rule="evenodd" clip-rule="evenodd" d="M643.564 66.5V54H659.8V61H688.473V48H705.4V57H725.436V66H740.291V51H751V125H637V66.5H643.564Z" fill="#02A0E4"/>
<path opacity="0.3" d="M751 102.431H637V125H751V102.431Z" fill="#003260"/>
<path opacity="0.3" d="M751 97.2222H637V102.43H751V97.2222Z" fill="#45BCFF"/>
<path opacity="0.3" d="M751 95.4863H637V97.2224H751V95.4863Z" fill="#74B3CF"/>
<path opacity="0.3" fill-rule="evenodd" clip-rule="evenodd" d="M813.564 45.2273V28.1818H829.8V37.7273H858.473V20H875.4V32.2727H895.436V44.5455H910.291V24.0909H921V125H807V45.2273H813.564Z" fill="#02A0E4"/>
<path opacity="0.3" d="M921 93H807V125H921V93Z" fill="#003260"/>
<path opacity="0.3" d="M921 85H807V93H921V85Z" fill="#45BCFF"/>
<path opacity="0.3" d="M921 83H807V85H921V83Z" fill="#74B3CF"/>
<path opacity="0.3" fill-rule="evenodd" clip-rule="evenodd" d="M756.879 49.7857V33.7143H764V42.7143H776.576V26H784V37.5714H792.788V49.1429H799.303V29.8571H804V125H754V49.7857H756.879Z" fill="#02A0E4"/>
<path opacity="0.3" d="M804 115H754V125H804V115Z" fill="#419FC8"/>
<path opacity="0.3" d="M804 110H754V115H804V110Z" fill="#106DA2"/>
<path opacity="0.3" d="M804 95H754V97H804V95Z" fill="#DDF5FF"/>
</g>
</svg>
