<svg xmlns="http://www.w3.org/2000/svg" width="78.699" height="40.014" viewBox="0 0 78.699 40.014">
  <g id="logotype--smal-white" transform="translate(-374.924 -8.486)">
    <path id="Контур_275" data-name="Контур 275" d="M-5056.39,19777.789h16.79l-16.79,13.334Zm39.679,2.1h0v35.559l-11.121-8.582v-18.549Zm-28.322,37.572h-11.357v-7l3.524-2.637,8,5.811Z" transform="translate(5470.137 -19769.104)" fill="#fff" fill-rule="evenodd"/>
    <path id="Контур_276" data-name="Контур 276" d="M-8899.147,19758.148a19.889,19.889,0,0,1,17.654,10.7h-17.74a9.21,9.21,0,0,0-9.122,9.205,9.213,9.213,0,0,0,9.208,9.213,9.12,9.12,0,0,0,5.365-1.734l.009,0,34.514-27.584,18.9.033-50.818,38.059a17.844,17.844,0,0,1-7.968,1.922,19.91,19.91,0,0,1-19.913-19.91A19.911,19.911,0,0,1-8899.147,19758.148Zm24.891,28.215h0l14.479,11.521h19.311l-24.525-18.6Z" transform="translate(9293.984 -19749.463)" fill="#fff" fill-rule="evenodd"/>
  </g>
</svg>
