<svg xmlns="http://www.w3.org/2000/svg" width="390.363" height="40.014" viewBox="0 0 390.363 40.014">
  <g id="logotype--white" transform="translate(-368 -64.917)">
    <path id="Контур_275" data-name="Контур 275" d="M-5056.39,19777.789h16.79l-16.79,13.334Zm39.679,2.1h0v35.559l-11.121-8.582v-18.549Zm-28.322,37.572h-11.357v-7l3.524-2.637,8,5.811Z" transform="translate(5463.215 -19712.672)" fill="#fff" fill-rule="evenodd"/>
    <path id="Контур_276" data-name="Контур 276" d="M-8899.147,19758.148a19.889,19.889,0,0,1,17.654,10.7h-17.74a9.21,9.21,0,0,0-9.122,9.205,9.213,9.213,0,0,0,9.208,9.213,9.12,9.12,0,0,0,5.365-1.734l.009,0,34.514-27.584,18.9.033-50.818,38.059a17.844,17.844,0,0,1-7.968,1.922,19.91,19.91,0,0,1-19.913-19.91A19.911,19.911,0,0,1-8899.147,19758.148Zm24.891,28.215h0l14.479,11.521h19.311l-24.525-18.6Z" transform="translate(9287.061 -19693.031)" fill="#fff" fill-rule="evenodd"/>
    <path id="Контур_278" data-name="Контур 278" d="M9038.964,19872.49H9034.7v-2.164h-6.991l3.64-3.918h3.352v-4.225l-10.727,10.676v-5.648l10.727-10.73h4.267Z" transform="translate(-8475.625 -19790.572)" fill="#fff" fill-rule="evenodd"/>
    <path id="Контур_279" data-name="Контур 279" d="M13572.6,19872.488h-4.261v-10.307l-10.732,10.674v-5.646l10.732-10.732h4.261Z" transform="translate(-12963.695 -19790.568)" fill="#fff" fill-rule="evenodd"/>
    <path id="Контур_280" data-name="Контур 280" d="M23820.6,19872.488h-4.266v-10.307l-10.729,10.674v-5.646l10.729-10.732h4.266Z" transform="translate(-23108.695 -19790.568)" fill="#fff" fill-rule="evenodd"/>
    <path id="Контур_281" data-name="Контур 281" d="M5886.787,19824.924l-4.72,4.26v-4.26Zm4.4,16h0v-16h-3.653l-6.42,6.391v-6.713l-4.26,4.168v12.438l10.075-9.934v9.654Z" transform="translate(-5360.137 -19759.014)" fill="#fff" fill-rule="evenodd"/>
    <path id="Контур_282" data-name="Контур 282" d="M2894.928,19862.561a5.7,5.7,0,0,1-2.077,4.588,6.054,6.054,0,0,1-4,1.484h-.913v-3.838h.913a2.231,2.231,0,1,0,0-4.463h-1.9v12.152h-4.268v-12.152l3.838-3.852h2.354a5.972,5.972,0,0,1,4,1.516A5.707,5.707,0,0,1,2894.928,19862.561Z" transform="translate(-2396.061 -19790.572)" fill="#fff" fill-rule="evenodd"/>
    <path id="Контур_283" data-name="Контур 283" d="M4213.819,19843.246a8.427,8.427,0,0,1-2.028,5.861,7.263,7.263,0,0,1-5.691,2.354,7.188,7.188,0,0,1-5.668-2.354,9.552,9.552,0,0,1,0-11.727,7.205,7.205,0,0,1,5.668-2.359,7.3,7.3,0,0,1,5.708,2.336A8.433,8.433,0,0,1,4213.819,19843.246Zm-4.262,0h0a5.426,5.426,0,0,0-.775-3.033,3.035,3.035,0,0,0-2.682-1.338c-2.283,0-3.417,1.457-3.417,4.371a5.559,5.559,0,0,0,.733,3.025,3.38,3.38,0,0,0,5.387,0A5.361,5.361,0,0,0,4209.558,19843.246Z" transform="translate(-3698.576 -19769.328)" fill="#fff" fill-rule="evenodd"/>
    <path id="Контур_284" data-name="Контур 284" d="M7499.109,19872.484h-4.261v-12.152h-5.426v12.152h-4.262v-11.738l4.262-4.266h9.688Z" transform="translate(-6952.281 -19790.572)" fill="#fff" fill-rule="evenodd"/>
    <path id="Контур_285" data-name="Контур 285" d="M10724.7,19833.957h-4.263v-6.076h-5.406v6.076h-4.264v-12.066l4.264-4.33v6.473h5.406v-6.08h4.263Z" transform="translate(-10145.469 -19752.043)" fill="#fff" fill-rule="evenodd"/>
    <path id="Контур_286" data-name="Контур 286" d="M12298.866,19856.48l-3.859,3.852h-6.728v2.229h6.728v3.848h-6.728v2.225h6.728v3.852h-10.987v-11.67l4.26-4.334Z" transform="translate(-11702.906 -19790.572)" fill="#fff" fill-rule="evenodd"/>
    <path id="Контур_287" data-name="Контур 287" d="M25484,19856.48l-3.863,3.852h-6.729v2.229h6.729v3.848h-6.729v2.225h6.729v3.852h-10.988v-11.67l4.26-4.334Z" transform="translate(-24755.516 -19790.572)" fill="#fff" fill-rule="evenodd"/>
    <path id="Контур_288" data-name="Контур 288" d="M15239.9,19866.408a5.718,5.718,0,0,1-2.059,4.564,6,6,0,0,1-4,1.512h-6.6v-11.693l4.263-4.311v12.152h1.9a2.226,2.226,0,1,0,0-4.451h-.909v-3.85h1.317a6.062,6.062,0,0,1,4,1.49A5.718,5.718,0,0,1,15239.9,19866.408Z" transform="translate(-14616.547 -19790.572)" fill="#fff" fill-rule="evenodd"/>
    <path id="Контур_289" data-name="Контур 289" d="M16636.8,19822.477l-7.8,7.785,3.35,3.377v5.854l-6.3-6.27-2.268,2.234v3.023h-4.262v-12.1l4.262-4.252v7.494l7.182-7.148Z" transform="translate(-15994.832 -19756.568)" fill="#fff" fill-rule="evenodd"/>
    <path id="Контур_290" data-name="Контур 290" d="M26799.553,19822.477l-7.8,7.785,3.346,3.377v5.854l-6.295-6.27-2.275,2.234v3.023h-4.26v-12.1l4.26-4.252v7.494l7.184-7.148Z" transform="translate(-26055.438 -19756.568)" fill="#fff" fill-rule="evenodd"/>
    <path id="Контур_291" data-name="Контур 291" d="M18137.955,19843.246a8.426,8.426,0,0,1-2.035,5.861,8.028,8.028,0,0,1-11.357,0,9.55,9.55,0,0,1,0-11.727,7.2,7.2,0,0,1,5.668-2.359,7.3,7.3,0,0,1,5.711,2.336A8.43,8.43,0,0,1,18137.955,19843.246Zm-4.264,0h0a5.391,5.391,0,0,0-.781-3.033,3.019,3.019,0,0,0-2.68-1.338q-3.422,0-3.418,4.371a5.555,5.555,0,0,0,.734,3.025,3.38,3.38,0,0,0,5.387,0A5.349,5.349,0,0,0,18133.691,19843.246Z" transform="translate(-17482.758 -19769.328)" fill="#fff" fill-rule="evenodd"/>
    <path id="Контур_292" data-name="Контур 292" d="M290.819,19860.33a5.6,5.6,0,0,0-3.3,1.055,3.673,3.673,0,0,0-1.6,3.1,3.589,3.589,0,0,0,1.619,3.064,5.516,5.516,0,0,0,3.416,1.08h.888v3.852h-1.188a9.51,9.51,0,0,1-6.253-2.135,7.615,7.615,0,0,1,.023-11.727,9.468,9.468,0,0,1,6.23-2.145h4.015Z" transform="translate(178.816 -19790.568)" fill="#fff" fill-rule="evenodd"/>
    <path id="Контур_293" data-name="Контур 293" d="M1440.028,19860.332H1438v12.152h-4.26v-12.152H1427.8l3.8-3.852h12.278Z" transform="translate(-955.805 -19790.572)" fill="#fff" fill-rule="evenodd"/>
    <path id="Контур_294" data-name="Контур 294" d="M28331.49,19860.332h-2.023v12.152h-4.266v-12.152h-5.941l3.8-3.852h12.279Z" transform="translate(-27576.977 -19790.572)" fill="#fff" fill-rule="evenodd"/>
    <path id="Контур_295" data-name="Контур 295" d="M22277.332,19872.484h-4.264v-12.152h-5.43v12.152h-4.26V19860.7l4.26-4.223h9.693Z" transform="translate(-21581.969 -19790.572)" fill="#fff" fill-rule="evenodd"/>
    <path id="Контур_296" data-name="Контур 296" d="M19748.471,19899.7h-4.262v-10.3l-8.658,8.607v-8.607l-10.73,10.682v-5.66l10.73-10.727h4.262v4.395l4.4-4.395h4.262Z" transform="translate(-19068.922 -19817.508)" fill="#fff" fill-rule="evenodd"/>
    <path id="Контур_297" data-name="Контур 297" d="M765.7,22459.688h-1.251l-.76-1.7h-3.035l-.762,1.7H758.64l3.526-7.537Zm-2.441-2.672-1.094-2.461-1.074,2.461Zm17.343,2.672h-1.487l-2.911-3.541v3.541h-1.126v-7.174H776.2v3.178l2.865-3.178H780.5l-3.178,3.379Zm15.406,1.406h-1.024v-1.406h-5v-7.174h1.125v6.174h3.1v-6.174h1.116v6.174h.679Zm15.069-1.406H809.96v-4.807l-4.562,4.969v-7.336h1.125v4.7l4.553-4.863Zm17.006-3.588a3.585,3.585,0,0,1-1.119,2.646,3.841,3.841,0,0,1-5.385,0,3.583,3.583,0,0,1-1.119-2.65,3.672,3.672,0,0,1,1.116-2.645,3.842,3.842,0,0,1,5.386,0A3.666,3.666,0,0,1,828.082,22456.1Zm-1.135,0a2.613,2.613,0,0,0-.775-1.914,2.7,2.7,0,0,0-3.8,0,2.759,2.759,0,0,0,0,3.822,2.571,2.571,0,0,0,1.9.773,2.644,2.644,0,0,0,2.678-2.682Zm16.022,3.588h-1.125v-3.332H838.6v3.332h-1.125v-7.174H838.6v2.852h3.246v-2.852h1.125Zm13.317-6.184h-2.8v1.824h2.692v.99h-2.692v2.369h2.791v1H852.36v-7.174h3.926Zm13.7,1.109a2.1,2.1,0,0,1-.663,1.637,2.976,2.976,0,0,1-1.862.574h-.665v2.863h-1.126v-7.174h1.572Q869.985,22452.514,869.984,22454.613Zm-1.125.031c0-.779-.625-1.17-1.694-1.17h-.371v2.389h.436q1.629,0,1.629-1.219Zm16,5.043h-1.125v-3.332h-3.246v3.332h-1.125v-7.174h1.125v2.852h3.246v-2.852h1.125Zm17-3.588a3.585,3.585,0,0,1-1.119,2.646,3.841,3.841,0,0,1-5.385,0,3.584,3.584,0,0,1-1.119-2.65,3.638,3.638,0,0,1,1.116-2.645,3.842,3.842,0,0,1,5.386,0A3.632,3.632,0,0,1,901.865,22456.1Zm-1.135,0a2.613,2.613,0,0,0-.775-1.914,2.7,2.7,0,0,0-3.8,0,2.759,2.759,0,0,0,0,3.822,2.571,2.571,0,0,0,1.9.773,2.644,2.644,0,0,0,2.678-2.682Zm14.467-2.6h-2.8v1.824h2.693v.99H912.4v2.369h2.791v1h-3.916v-7.174H915.2Zm26.641,2.6a3.585,3.585,0,0,1-1.119,2.646,3.841,3.841,0,0,1-5.385,0,3.584,3.584,0,0,1-1.119-2.65,3.627,3.627,0,0,1,1.116-2.645,3.842,3.842,0,0,1,5.386,0A3.618,3.618,0,0,1,941.837,22456.1Zm-1.135,0a2.613,2.613,0,0,0-.775-1.914,2.7,2.7,0,0,0-3.8,0,2.759,2.759,0,0,0,0,3.822,2.571,2.571,0,0,0,1.9.773,2.644,2.644,0,0,0,2.678-2.682Zm15.025,1.408a1.94,1.94,0,0,1-.8,1.664,3.127,3.127,0,0,1-1.837.516H951.23v-7.174h3.962v.99h-2.837v1.824h.74a3.032,3.032,0,0,1,1.837.521A1.936,1.936,0,0,1,955.728,22457.508Zm-1.154,0a1.072,1.072,0,0,0-.427-.914,1.846,1.846,0,0,0-1.1-.3h-.692v2.428h.692Q954.574,22458.717,954.573,22457.508Zm19.331,3.586h-1.019v-1.406h-7.771v-7.174h1.125v6.174h2.381v-6.174h1.111v6.174h2.381v-6.174h1.126v6.174h.665Zm13.283-7.59h-2.8v1.824h2.693v.99h-2.693v2.369h2.791v1h-3.916v-7.174h3.926Zm15.005,5.877a3.994,3.994,0,0,1-1.781.469,3.8,3.8,0,0,1-2.781-1.035,3.646,3.646,0,0,1-1.051-2.715,3.608,3.608,0,0,1,1.1-2.713,3.827,3.827,0,0,1,2.745-1.035,3.344,3.344,0,0,1,1.762.455v1.324a2.494,2.494,0,0,0-1.841-.734,2.522,2.522,0,0,0-1.851.729,2.953,2.953,0,0,0,0,3.965,2.535,2.535,0,0,0,1.856.715,2.65,2.65,0,0,0,1.851-.752Zm13.952-5.877h-1.721v6.184h-1.116v-6.184h-1.726v-.99h4.562Zm13.855,4.139c0,1.361-.876,2.045-2.6,2.045h-1.865v-7.174h1.571q2.274,0,2.275,1.941a1.381,1.381,0,0,1-.836,1.338,1.923,1.923,0,0,1,1.073.668A1.852,1.852,0,0,1,1030,22457.643Zm-1.678-3.123c0-.709-.456-1.062-1.345-1.062h-.321v2.107h.446a1.347,1.347,0,0,0,.891-.271.943.943,0,0,0,.329-.773Zm.562,3.08c0-.777-.561-1.166-1.656-1.166h-.571v2.309h.637C1028.352,22458.742,1028.882,22458.363,1028.882,22457.6Zm18.125-1.49a3.585,3.585,0,0,1-1.119,2.646,3.838,3.838,0,0,1-5.385,0,3.695,3.695,0,0,1,0-5.295,3.84,3.84,0,0,1,5.386,0A3.579,3.579,0,0,1,1047.008,22456.109Zm-1.135,0a2.613,2.613,0,0,0-.775-1.914,2.7,2.7,0,0,0-3.8,0,2.757,2.757,0,0,0,0,3.82,2.676,2.676,0,0,0,4.577-1.906Z" transform="translate(-293.369 -22360.152)" fill="#fff" fill-rule="evenodd"/>
  </g>
</svg>
