<svg xmlns="http://www.w3.org/2000/svg" width="78.007" height="39.665" viewBox="0 0 78.007 39.665">
  <g id="logotype--small" transform="translate(-1359 -4565.835)">
    <path id="Контур_50" data-name="Контур 50" d="M30.164,39.769H18.91v-6.94l3.5-2.625,7.917,5.78ZM58.249,2.526V37.775l-11.03-8.507V10.952ZM18.91.43H35.557L18.91,13.658Z" transform="translate(1378.574 4565.589)" fill="#00a1e0" fill-rule="evenodd"/>
    <path id="Контур_51" data-name="Контур 51" d="M44.407,28.506l9.2-7.021L77.9,39.923H58.775ZM19.741.523a19.741,19.741,0,0,1,17.5,10.623H19.659a9.138,9.138,0,1,0,5.393,16.525h0L59.283.34H78.007L27.637,38.112A17.991,17.991,0,0,1,19.741,40a19.741,19.741,0,1,1,0-39.481Z" transform="translate(1359 4565.495)" fill="#005228" fill-rule="evenodd"/>
  </g>
</svg>
