<svg aria-hidden="true" style="position: absolute; width: 0; height: 0; overflow: hidden;" version="1.1" xmlns="http://www.w3.org/2000/svg" xmlns:xlink="http://www.w3.org/1999/xlink">
    <defs>
        <symbol id="mapLand" viewBox="0 0 16.485 16.49">
            <g id="_2ajM47.tif" data-name="2ajM47.tif" transform="translate(-1433.216 -249.756)">
                <path id="Контур_299" data-name="Контур 299" d="M1449.7,254.85v10.629c0,.767,0,.767-.767.767-1.256-.493-2.507-1-3.772-1.472a.731.731,0,0,1-.552-.806c.017-2.7.009-5.4.008-8.106v-.642a3.25,3.25,0,0,0-.839,2.117c.053,2.171.007,4.344.026,6.517a.827.827,0,0,1-.632.929c-1,.341-1.981.744-2.97,1.119-.661.251-.714.218-.714-.49,0-2.866-.023-5.733.013-8.6a3.247,3.247,0,0,0-.828-1.967v.729q0,4.957,0,9.913c0,.621-.036.648-.613.443-1.41-.5-2.813-1.018-4.227-1.506a.81.81,0,0,1-.619-.89c.014-3.341.006-6.682.009-10.023,0-.784.272-.965,1.035-.7q1.782.624,3.56,1.259c.607.215.608.215.535-.423a3.461,3.461,0,0,1,2.873-3.85,3.413,3.413,0,0,1,3.871,2.687.9.9,0,0,0,.667.751c1.1.4,2.184.826,3.277,1.237A1.654,1.654,0,0,1,1449.7,254.85Zm-5.625-1.59a2.316,2.316,0,1,0-4.29,1.13c.531.955,1.159,1.856,1.739,2.784.153.245.282.312.465.021.581-.927,1.181-1.842,1.756-2.774A1.9,1.9,0,0,0,1444.077,253.26Z" stroke="none"/>
                <path id="Контур_300" data-name="Контур 300" d="M1452.824,255.878a1.5,1.5,0,0,1-1.467,1.525,1.535,1.535,0,0,1-1.552-1.51,1.474,1.474,0,0,1,1.508-1.474A1.458,1.458,0,0,1,1452.824,255.878Z" transform="translate(-9.552 -2.686)" stroke="none"/>
            </g>
        </symbol>
        <symbol id="search" viewBox="0 0 15 14.99">
            <path id="Контур_49" data-name="Контур 49" d="M716.664,550.242c.292.048.589.079.876.149a5.606,5.606,0,0,1,3.748,2.888,5.677,5.677,0,0,1-.054,5.433l-.1.176c.293.287.59.574.883.867,1.06,1.058,2.126,2.109,3.171,3.181a1.373,1.373,0,0,1,.288,1.383,1.162,1.162,0,0,1-.987.887,1.45,1.45,0,0,1-1.332-.39q-1.892-1.905-3.794-3.8a1.814,1.814,0,0,1-.135-.165c-.424.182-.8.371-1.191.505a5.279,5.279,0,0,1-2.824.193,5.6,5.6,0,0,1-4.412-3.919,8.648,8.648,0,0,1-.227-1.113c-.009-.043-.019-.085-.029-.127v-.878a.583.583,0,0,0,.026-.1,5.109,5.109,0,0,1,.4-1.637,5.628,5.628,0,0,1,4.154-3.423c.226-.05.459-.076.688-.112Zm-4.484,5.743a4.069,4.069,0,1,0,4.005-4.107A4.061,4.061,0,0,0,712.181,555.985Z" transform="translate(-710.546 -550.242)" stroke="none"/>
        </symbol>
        <symbol id="mapMaker" viewBox="0 0 12.656 17.906">
            <path id="Контур_46" data-name="Контур 46" d="M1567.695,260.757a2.88,2.88,0,1,1,2.859-2.879,2.869,2.869,0,0,1-2.859,2.879m0-9.23a6.351,6.351,0,0,0-6.328,6.374c0,3.325,2.866,7.615,4.78,9.7.715.779,1.548,1.83,1.548,1.83s.894-1.056,1.661-1.859c1.913-2,4.667-6.019,4.667-9.673a6.351,6.351,0,0,0-6.328-6.374" transform="translate(-1561.367 -251.527)" stroke="none"/>
        </symbol>
        <symbol id="mail" viewBox="0 0 17.792 13.383">
            <g id="Сгруппировать_2" data-name="Сгруппировать 2" transform="translate(0 0)">
                <path id="Контур_47" data-name="Контур 47" d="M388.561,279.961v8.9a1.2,1.2,0,0,1-1.274.853q-7.708-.015-15.417,0a1.106,1.106,0,0,1-.5-.116,1.225,1.225,0,0,1-.6-.733v-9.035c.162.122.326.241.487.364l5.475,4.186c.745.569,1.484,1.144,2.238,1.7a1.108,1.108,0,0,0,1.4,0c.175-.124.346-.252.517-.38q3.734-2.8,7.469-5.608C388.418,280.033,388.473,279.966,388.561,279.961Z" stroke="none" transform="translate(-370.769 -276.327)"/>
                <path id="Контур_48" data-name="Контур 48" d="M370.769,275.559v-.313a1.215,1.215,0,0,1,1.292-.854q7.621.015,15.242.006a1.663,1.663,0,0,1,.414.025,1.181,1.181,0,0,1,.842.823v.313q-.9.692-1.8,1.384-3.466,2.671-6.929,5.343a.223.223,0,0,1-.329,0c-.319-.258-.648-.505-.973-.756q-2.336-1.8-4.674-3.6Q372.311,276.743,370.769,275.559Z" transform="translate(-370.769 -274.392)" stroke="none"/>
            </g>
        </symbol>
        <symbol id="phone" viewBox="0 0 15.963 17.15">
            <path id="Контур_251" data-name="Контур 251" d="M730.212,283.214a6.394,6.394,0,0,1-2.829-.687,15.505,15.505,0,0,1-4.888-3.959,14.8,14.8,0,0,1-2.9-4.62,6.584,6.584,0,0,1,.155-5.356,6.493,6.493,0,0,1,2.242-2.323,1,1,0,0,1,1.283.059,6.609,6.609,0,0,1,2.146,3.461,1.431,1.431,0,0,1-.55,1.486c-.329.268-.661.533-.992.8a1.436,1.436,0,0,0-.56,1.754,3.712,3.712,0,0,0,.4.891,12.184,12.184,0,0,0,3.126,3.474,4.46,4.46,0,0,0,.433.291,1.512,1.512,0,0,0,2.068-.257c.217-.213.419-.442.638-.654a1.761,1.761,0,0,1,2.215-.34,9.229,9.229,0,0,1,2.521,2.149,1.17,1.17,0,0,1-.164,1.793,7.25,7.25,0,0,1-2.145,1.625A6.186,6.186,0,0,1,730.212,283.214Z" stroke="none" transform="translate(-719.102 -266.064)"/>
        </symbol>
        <symbol id="arrowLeft" viewBox="0 0 68 29.809">
            <g id="arrow" transform="translate(67 28.395) rotate(180)">
                <path id="Line" d="M3,12H68.517" transform="translate(-3 1.491)" fill="none" stroke-linecap="round" stroke-width="2" fill-rule="evenodd"/>
                <path id="Head" d="M13,4,26.49,17.49,13,30.98" transform="translate(39.51 -3.999)" fill="none" stroke-linecap="round" stroke-linejoin="round" stroke-width="2" fill-rule="evenodd"/>
            </g>
        </symbol>
        <symbol id="arrowRight" viewBox="0 0 68 29.809">
            <g id="arrow" transform="translate(1 1.414)">
                <path id="Line" d="M3,12H68.517" transform="translate(-3 1.491)" fill="none" stroke-linecap="round" stroke-width="2" fill-rule="evenodd"/>
                <path id="Head" d="M13,4,26.49,17.49,13,30.98" transform="translate(39.51 -3.999)" fill="none" stroke-linecap="round" stroke-linejoin="round" stroke-width="2" fill-rule="evenodd"/>
            </g>
        </symbol>
        <symbol id="ok" viewBox="0 0 8.974 15.125">
            <path id="Фигура_10_копия_2-2" data-name="Фигура 10 копия 2" d="M1450.34,101.692v-.413c.035-.088.062-.177.1-.265a.917.917,0,0,1,.742-.557,1.038,1.038,0,0,1,.707.2c.15.095.292.208.442.3a4.818,4.818,0,0,0,3.259.624,4.29,4.29,0,0,0,2.058-.838,1.412,1.412,0,0,1,.494-.251.9.9,0,0,1,1.033.429,2.451,2.451,0,0,1,.141.353v.383a1.129,1.129,0,0,1-.344.5,5.14,5.14,0,0,1-2.579,1.247c-.247.046-.5.088-.768.131.035.039.053.062.071.082l1.537,1.55,1.139,1.158a.883.883,0,0,1,.256.905.959.959,0,0,1-1.634.451c-.671-.7-1.351-1.373-2.022-2.064-.1-.105-.159-.11-.265,0-.662.682-1.325,1.356-1.987,2.031a1.115,1.115,0,0,1-.442.3,1.037,1.037,0,0,1-1.245-.779.96.96,0,0,1,.282-.856c.875-.878,1.74-1.759,2.605-2.64a.227.227,0,0,0,.106-.14.255.255,0,0,0-.053-.018c-.115-.019-.23-.036-.344-.052a5.355,5.355,0,0,1-2.738-1.137,1.708,1.708,0,0,1-.548-.64Zm4.019-8.832h.936a.408.408,0,0,0,.053.015,3.86,3.86,0,0,1,3.206,4.613,3.807,3.807,0,1,1-4.884-4.47,4.266,4.266,0,0,1,.689-.155ZM1453,96.686a1.833,1.833,0,1,0,3.665.006,1.887,1.887,0,0,0-1.837-1.878A1.86,1.86,0,0,0,1453,96.693Z" stroke="none" transform="translate(-1450.34 -92.86)" fill-rule="evenodd"/>
        </symbol>
        <symbol id="instagram" viewBox="0 0 14.928 15.125">
            <path id="Фигура_11_копия_2-2" data-name="Фигура 11 копия 2" d="M1487.243,108.834h-4.5a2.868,2.868,0,0,1-2.854-2.2,3.045,3.045,0,0,1-.094-.75V96.666a2.891,2.891,0,0,1,2.481-2.929,3.02,3.02,0,0,1,.477-.027h9a2.886,2.886,0,0,1,2.886,2.271,3.183,3.183,0,0,1,.073.7q.016,4.585.01,9.169a2.917,2.917,0,0,1-2.5,2.955,3.29,3.29,0,0,1-.529.026C1490.2,108.835,1488.727,108.834,1487.243,108.834Zm-6-9.1v6.1a1.433,1.433,0,0,0,1.505,1.527h9a1.442,1.442,0,0,0,1.505-1.541V99.742H1491.1c.073.461.166.911.208,1.365a3.3,3.3,0,0,1-.166,1.382,3.944,3.944,0,0,1-.612,1.228,4.053,4.053,0,0,1-7.089-.957,4.112,4.112,0,0,1,.01-3.024h-2.211Zm8.625,1.536a2.674,2.674,0,1,0,0,.005Zm3.1-5.806h-2.512v2.541h2.512" transform="translate(-1479.789 -93.709)" stroke="none" fill-rule="evenodd"/>
        </symbol>
        <symbol id="youtube" viewBox="0 0 19.537 13.737">
            <path id="Icon_awesome-youtube-2" data-name="Icon awesome-youtube" d="M20.179,6.649a2.455,2.455,0,0,0-1.727-1.738C16.928,4.5,10.818,4.5,10.818,4.5s-6.109,0-7.633.411A2.455,2.455,0,0,0,1.458,6.649a25.752,25.752,0,0,0-.408,4.733,25.752,25.752,0,0,0,.408,4.733,2.418,2.418,0,0,0,1.727,1.711c1.524.411,7.633.411,7.633.411s6.109,0,7.633-.411a2.418,2.418,0,0,0,1.727-1.711,25.752,25.752,0,0,0,.408-4.733,25.752,25.752,0,0,0-.408-4.733ZM8.82,14.287V8.477l5.106,2.9-5.106,2.9Z" stroke="none" transform="translate(-1.05 -4.5)"/>
        </symbol>
        <symbol id="twitter" viewBox="0 0 17.267 15.125">
            <path id="Фигура_20-2" data-name="Фигура 20" d="M1387.213,106.839a3.7,3.7,0,0,1-3.335-2.654,3.314,3.314,0,0,0,1.576-.067,3.861,3.861,0,0,1-2.828-3.8,3.518,3.518,0,0,0,1.63.472,4,4,0,0,1-1.112-5.081,9.989,9.989,0,0,0,7.338,3.982c-.022-.23-.054-.432-.065-.633a3.734,3.734,0,0,1,2.989-4.016,3.294,3.294,0,0,1,3.011,1.015.3.3,0,0,0,.334.1,6.989,6.989,0,0,0,1.867-.763c.054-.029.1-.056.183-.1a3.353,3.353,0,0,1-.594,1.17c-.27.324-.583.616-.863.908a6.654,6.654,0,0,0,1.91-.565.713.713,0,0,1-.086.157,7.41,7.41,0,0,1-1.532,1.687.294.294,0,0,0-.119.288c.119,4.111-2.137,8.633-6.216,10.4a9.7,9.7,0,0,1-4.532.755,9.533,9.533,0,0,1-4.6-1.54,2.2,2.2,0,0,1-.183-.126,6.906,6.906,0,0,0,5.223-1.586Z" transform="translate(-1381.99 -94.993)" stroke="none" fill-rule="evenodd"/>
        </symbol>
        <symbol id="whatsapp" viewBox="0 0 15.068 15.125">
            <path id="Фигура_21-2" data-name="Фигура 21" d="M1364.113,102.591a7.55,7.55,0,0,1-11.249,6.57.991.991,0,0,0-.9-.092c-.616.216-1.243.415-1.859.617-.432.138-.551-.014-.4-.427.173-.519.324-1.049.519-1.557a1.285,1.285,0,0,0-.119-1.244A7.583,7.583,0,0,1,1356.744,95a7.456,7.456,0,0,1,7.37,7.587Zm-11.767-2a2.044,2.044,0,0,0,.13.808,8.5,8.5,0,0,0,6.278,5.31,2.1,2.1,0,0,0,1.988-.756.973.973,0,0,0-.313-1.637c-.173-.085-.346-.171-.508-.254-.929-.451-.951-.467-1.588.334a.756.756,0,0,1-1.08.239,5.9,5.9,0,0,1-2.561-2.269.606.606,0,0,1,.043-.851,1.156,1.156,0,0,0,.184-1.591c-.151-.275-.249-.583-.378-.864a.821.821,0,0,0-1.34-.3,2.386,2.386,0,0,0-.854,1.832Z" transform="translate(-1349.046 -95.003)" fill-rule="evenodd" stroke="none"/>
        </symbol>
        <symbol id="viber" viewBox="0 0 14.236 15.125">
            <path id="Фигура_22-2" data-name="Фигура 22" d="M1323.04,94a14.4,14.4,0,0,1,4.135.56,3.777,3.777,0,0,1,2.727,2.885,11.778,11.778,0,0,1-.036,5.787,3.613,3.613,0,0,1-2.664,2.723,14.559,14.559,0,0,1-4.75.544.822.822,0,0,0-.713.345q-.882,1.018-1.791,2.013a.439.439,0,0,1-.517.249.534.534,0,0,1-.151-.529c0-.663-.009-1.328,0-1.991a.587.587,0,0,0-.419-.655,4.1,4.1,0,0,1-2.7-3.5,13.015,13.015,0,0,1,.036-4.2c.374-2.346,1.613-3.543,4.063-3.994A12.238,12.238,0,0,1,1323.04,94Zm4.17,9.385a.6.6,0,0,0-.2-.467,6.461,6.461,0,0,0-1.586-1.075.69.69,0,0,0-.9.241.98.98,0,0,1-1.355.254,4.3,4.3,0,0,1-2.13-2.139.777.777,0,0,1,.25-1.149.713.713,0,0,0,.187-1.1,11.311,11.311,0,0,0-.731-1.026c-.508-.6-.748-.654-1.239-.344-.864.552-1.132,1.046-.873,1.724a10.586,10.586,0,0,0,6.763,6.416,1.666,1.666,0,0,0,1.809-1.334Zm-3.8-7.459c-.143.047-.428-.113-.428.167-.009.209.268.131.419.165.125.029.258.037.383.062a3.837,3.837,0,0,1,3.359,3.653c.018.1.036.193.053.287.036.11.062.249.2.223a.2.2,0,0,0,.125-.235,4.251,4.251,0,0,0-.027-.585,4.341,4.341,0,0,0-4.09-3.737Zm.232,1.131c-.08.005-.294-.081-.321.118s.187.188.33.216c.125.026.258.038.383.07a2.45,2.45,0,0,1,1.969,2.228c.027.174-.036.471.231.429.241-.037.169-.31.152-.495a2.876,2.876,0,0,0-2.745-2.565Z" transform="translate(-1316.009 -93.995)" fill-rule="evenodd" stroke="none"/>
        </symbol>
        <symbol id="telegram" viewBox="0 0 16.142 14.125">
            <path id="Фигура_23" data-name="Фигура 23" d="M1298.265,95h.787c.081,0,.091.015.091.094-.01.347,0,.7,0,1.043-.111.5-.222,1-.323,1.5l-2.149,10.575a1.686,1.686,0,0,1-.2.58.638.638,0,0,1-.726.312,1.519,1.519,0,0,1-.6-.3c-1.13-.867-2.25-1.728-3.37-2.6a.21.21,0,0,0-.333.02c-.484.5-.968,1-1.473,1.489a1.648,1.648,0,0,1-.605.486c-.252.087-.3.036-.283-.23l.091-1.385c.05-.706.1-1.423.141-2.134a.368.368,0,0,1,.1-.226c.111-.1.212-.2.313-.3l3.148-2.965c.676-.633,1.342-1.264,2.018-1.9q.651-.613,1.3-1.231a.184.184,0,0,0,.091-.231.2.2,0,0,0-.252-.061,1.132,1.132,0,0,0-.394.2l-5.206,3.421-3.027,1.989a.33.33,0,0,1-.3.066q-1.786-.59-3.572-1.174a.865.865,0,0,1-.535-.421v-.219a1.587,1.587,0,0,1,.868-.622q4.873-1.962,9.766-3.925Z" stroke="none" transform="translate(-1283 -95)" fill-rule="evenodd"/>
        </symbol>
        <symbol id="vk" viewBox="0 0 21.891 14.125">
            <path id="Фигура_9_копия_2-2" data-name="Фигура 9 копия 2" d="M1416.11,96.206c.4,0,.8.012,1.2,0a.967.967,0,0,1,.9.515q.442.687.848,1.388c.612,1.034,1.166,2.1,1.8,3.11a5.745,5.745,0,0,0,.789,1.039c.342.323.577.268.754-.179a6.155,6.155,0,0,0,.294-1.671c.059-.824.047-1.659.047-2.49a.745.745,0,0,0-.824-.886c-.141,0-.294.007-.448.006-.059,0-.141.027-.165-.042a.184.184,0,0,1,.071-.185,4.165,4.165,0,0,1,2.273-1.313,10.35,10.35,0,0,1,1.719-.052c.271-.008.542,0,.824,0a.825.825,0,0,1,.86.669,4.744,4.744,0,0,1,.153,1.521c0,1.147-.117,2.293-.023,3.44a3.554,3.554,0,0,0,.212,1,.521.521,0,0,0,.978.118,2.582,2.582,0,0,0,.318-.643,30.1,30.1,0,0,1,2.732-5.231.85.85,0,0,1,.754-.366,8.1,8.1,0,0,1,3.227.51,1.658,1.658,0,0,1,.177.088.416.416,0,0,1,.259.589,6,6,0,0,1-.683,1.531c-.659,1.189-1.472,2.273-2.214,3.4a6.148,6.148,0,0,0-.436.72.75.75,0,0,0,.224,1.178,10.867,10.867,0,0,1,1.531,1.487,12.308,12.308,0,0,1,1.378,1.785,1.511,1.511,0,0,1-.118,1.8,1.49,1.49,0,0,1-1.107.509c-.836.013-1.672,0-2.52,0a.824.824,0,0,1-.6-.235c-.235-.236-.471-.471-.695-.707a16.749,16.749,0,0,0-1.625-1.6c-.129-.1-.247-.187-.376-.278a1.117,1.117,0,0,0-1.343-.127,1.656,1.656,0,0,0-.836,1.413,3.993,3.993,0,0,1-.094.919.706.706,0,0,1-.765.611,7.381,7.381,0,0,1-2.6-.316,7.708,7.708,0,0,1-2.85-1.875,22.615,22.615,0,0,1-5.276-8.159c-.247-.646-.495-1.3-.742-1.941-.224-.6-.059-.942.542-1,.495-.042.989-.008,1.484-.008v-.046Z" transform="translate(-1413.989 -95.432)" fill-rule="evenodd" stroke="none"/>
        </symbol>
        <symbol id="close" viewBox="0 0 17.27 17.743">
            <path id="Контур_9688" data-name="Контур 9688" d="M97.4,570.671a1.716,1.716,0,0,1-.154.24q-3.018,3.131-6.039,6.258c-.318.33-.5.334-.832.011l-1.389-1.34a.448.448,0,0,1-.01-.748l6.154-6.373c.051-.053.1-.107.16-.169-.064-.069-.117-.129-.173-.186l-6.125-6.344c-.287-.3-.285-.491.01-.776l1.417-1.369a.443.443,0,0,1,.746.01q3.028,3.134,6.055,6.27a2.67,2.67,0,0,1,.186.254c.106-.129.164-.212.234-.284q3-3.115,6.012-6.227c.278-.288.477-.294.76-.021q.709.684,1.418,1.368c.29.281.292.484.01.776L99.7,568.378c-.051.053-.1.107-.161.174l1.206,1.25,5.068,5.246c.32.331.32.515-.009.834q-.693.672-1.388,1.342a.448.448,0,0,1-.748-.008q-3.028-3.134-6.054-6.271C97.553,570.882,97.506,570.806,97.4,570.671Z" transform="translate(-88.781 -559.677)" stroke="none"/>
        </symbol>
        <symbol id="sorting" viewBox="0 0 16 15.37">
            <g id="wF1bEc.tif" transform="translate(-455.536 -360.687)">
                <g id="Сгруппировать_222" data-name="Сгруппировать 222" transform="translate(455.536 360.687)">
                    <path id="Контур_9691" data-name="Контур 9691" d="M455.536,374.408a.908.908,0,0,1,.808-.428,4.17,4.17,0,0,1,.744-.006,1.092,1.092,0,0,0,1.167-.576,2.3,2.3,0,0,1,3.918.071,1.016,1.016,0,0,0,.994.508c2.323-.016,4.647-.008,6.97-.007.16,0,.32-.005.479,0,.613.037.911.279.92.74.01.483-.3.734-.944.769-.159.008-.319,0-.479,0-2.359,0-4.717.006-7.076-.005a.81.81,0,0,0-.808.446,2.341,2.341,0,0,1-4.1-.042.7.7,0,0,0-.721-.4,10.076,10.076,0,0,1-1.01,0,.939.939,0,0,1-.861-.432Zm4.667,1.242a.961.961,0,0,0,.923-.918.994.994,0,0,0-.935-.918.919.919,0,0,0-.9.928A.9.9,0,0,0,460.2,375.649Z" stroke="none" transform="translate(-455.536 -367.02)"/>
                    <path id="Контур_9692" data-name="Контур 9692" d="M455.536,386.067c.263-.435.7-.437,1.128-.438,2.413,0,4.825-.009,7.237.005a.958.958,0,0,0,.948-.492,2.32,2.32,0,0,1,4.013.029.837.837,0,0,0,.855.463,6.735,6.735,0,0,1,1.115.026.687.687,0,0,1,.7.718.677.677,0,0,1-.685.731,8.863,8.863,0,0,1-1.222.031.665.665,0,0,0-.717.411,2.508,2.508,0,0,1-1.452,1.177h-1.171a2.258,2.258,0,0,1-1.419-1.046.935.935,0,0,0-1.021-.545c-2.4.018-4.79.009-7.185.007-.43,0-.864,0-1.128-.438Zm12.212.349a.928.928,0,0,0-.876-.943.989.989,0,0,0-.964.928.957.957,0,0,0,.922.908A.912.912,0,0,0,467.748,386.416Z" stroke="none" transform="translate(-455.536 -373.359)"/>
                    <path id="Контур_9693" data-name="Контур 9693" d="M455.536,362.753c.263-.435.7-.438,1.127-.438,2.412,0,4.824-.009,7.236.005a.956.956,0,0,0,.948-.489,2.318,2.318,0,0,1,4.012.024.815.815,0,0,0,.854.463,6.028,6.028,0,0,1,.692,0c.793.009,1.122.226,1.132.744.01.534-.335.764-1.158.772-.248,0-.5.015-.745,0a.69.69,0,0,0-.722.4,2.34,2.34,0,0,1-4.1.045.806.806,0,0,0-.806-.448c-2.447.011-4.895.007-7.342,0-.43,0-.863,0-1.127-.438Zm11.279-.6a.921.921,0,0,0,.017,1.843.909.909,0,0,0,.915-.957A.9.9,0,0,0,466.815,362.15Z" transform="translate(-455.536 -360.687)" stroke="none"/>
                </g>
            </g>
        </symbol>
        <symbol id="arrowTop" viewBox="0 0 12.58 13.122">
            <g id="arrow" transform="translate(1.414 12.122) rotate(-90)">
                <path id="Line" d="M3,12H13.948" transform="translate(-3 -7.124)" fill="none" stroke="currentColor" stroke-linecap="round" stroke-width="2" fill-rule="evenodd"/>
                <path id="Head" d="M13,4l4.876,4.876L13,13.751" transform="translate(-6.753 -3.999)" fill="none" stroke="currentColor" stroke-linecap="round" stroke-linejoin="round" stroke-width="2" fill-rule="evenodd"/>
            </g>
        </symbol>
        <symbol id="arrowBottom" viewBox="0 0 12.58 13.122">
            <g id="arrow" transform="translate(11.166 1) rotate(90)">
                <path id="Line" d="M3,12H13.948" transform="translate(-3 -7.124)" fill="none" stroke="currentColor" stroke-linecap="round" stroke-width="2" fill-rule="evenodd"/>
                <path id="Head" d="M13,4l4.876,4.876L13,13.751" transform="translate(-6.753 -3.999)" fill="none" stroke="currentColor" stroke-linecap="round" stroke-linejoin="round" stroke-width="2" fill-rule="evenodd"/>
            </g>
        </symbol>
        <symbol id="logotype" viewBox="0 0 21.958 11.164">
            <g id="Сгруппировать_264" data-name="Сгруппировать 264" transform="translate(-412.912 -1182.422)">
                <path id="Контур_9800" data-name="Контур 9800" stroke="none" d="M-5056.39,19777.789h4.685l-4.685,3.721Zm11.071.586h0v9.92l-3.1-2.395v-5.174Zm-7.9,10.482h-3.169v-1.953l.983-.734,2.231,1.619Z" transform="translate(5480.135 -18595.311)" fill-rule="evenodd"/>
                <path id="Контур_9801" data-name="Контур 9801" stroke="none" d="M-8913.5,19758a5.548,5.548,0,0,1,4.926,2.986h-4.949a2.569,2.569,0,0,0-2.546,2.568,2.571,2.571,0,0,0,2.569,2.57,2.543,2.543,0,0,0,1.5-.484h0l9.63-7.7,5.273.01-14.18,10.617a4.956,4.956,0,0,1-2.223.537,5.555,5.555,0,0,1-5.556-5.555A5.557,5.557,0,0,1-8913.5,19758Zm6.944,7.873h0l4.04,3.215h5.388l-6.842-5.189Z" transform="translate(9331.973 -18575.527)" fill-rule="evenodd"/>
            </g>
        </symbol>
        <symbol id="cursor" viewBox="0 0 11.959 18.324">
            <path id="cursor-icon" stroke="none" d="M1189.791,361.716l11.959,9.375-5.109.869,3.249,6.624-2.979,1.456-3.268-6.687-3.852,3.5Z" transform="translate(-1189.791 -361.716)"/>
        </symbol>
    </defs>
</svg>